<?xml version="1.0" standalone="no"?>
<svg
  width="600"
  height="600"
  viewBox="0 0 600 600"
  xmlns="http://www.w3.org/2000/svg"
>
  <g transform="translate(300,300)">
    <path d="M139.2,-213.6C171.3,-195.9,182.1,-142,203.3,-93.5C224.6,-44.9,256.3,-1.7,256.8,41.2C257.3,84.1,226.5,126.9,189.8,158.4C153,189.8,110.3,210.1,65.8,222.2C21.3,234.4,-25,238.6,-57.4,218.6C-89.8,198.5,-108.4,154.3,-135,119.3C-161.5,84.4,-196.1,58.8,-215.5,21.9C-235,-15,-239.4,-63.2,-223,-103C-206.7,-142.9,-169.6,-174.5,-128.9,-188.3C-88.3,-202.1,-44.2,-198,4.7,-205.3C53.5,-212.6,107,-231.2,139.2,-213.6Z" fill="#8ed1fc" />
  </g>
</svg>
  